<svg width="20" height="17" viewBox="0 0 20 17" fill="none" xmlns="http://www.w3.org/2000/svg">
<path d="M10.832 0.666504V1.49984H16.6653V3.1665H10.832V14.8332H14.1653V16.4998H5.83203V14.8332H9.16533V3.1665H3.33203V1.49984H9.16533V0.666504H10.832ZM4.16537 4.2858L6.52238 6.64281C7.1256 7.24603 7.4987 8.07934 7.4987 8.99984C7.4987 10.8408 6.00632 12.3332 4.16537 12.3332C2.32442 12.3332 0.832031 10.8408 0.832031 8.99984C0.832031 8.07934 1.20513 7.24603 1.80834 6.64281L4.16537 4.2858ZM15.832 4.2858L18.1891 6.64281C18.7922 7.24603 19.1653 8.07934 19.1653 8.99984C19.1653 10.8408 17.673 12.3332 15.832 12.3332C13.9911 12.3332 12.4987 10.8408 12.4987 8.99984C12.4987 8.07934 12.8718 7.24603 13.475 6.64281L15.832 4.2858ZM15.832 6.64281L14.6535 7.82134C14.3419 8.13292 14.1653 8.55034 14.1653 8.99984L17.4987 9.00067C17.4987 8.55034 17.3222 8.13292 17.0106 7.82134L15.832 6.64281ZM4.16537 6.64281L2.98685 7.82134C2.67523 8.13292 2.4987 8.55034 2.4987 8.99984L5.83203 9.00067C5.83203 8.55034 5.6555 8.13292 5.34388 7.82134L4.16537 6.64281Z" fill="#4880FF"/>
</svg>
