<svg width="23" height="20" viewBox="0 0 23 20" fill="none" xmlns="http://www.w3.org/2000/svg">
<path d="M11.5 10.5858L15.7426 14.8284L14.3284 16.2426L12.5 14.415V20H10.5V14.413L8.67157 16.2426L7.25736 14.8284L11.5 10.5858ZM11.5 0C15.0934 0 18.0544 2.70761 18.4541 6.19395C20.7858 6.83154 22.5 8.9656 22.5 11.5C22.5 14.3688 20.3036 16.7246 17.5006 16.9776L17.5009 14.9644C19.1966 14.7214 20.5 13.2629 20.5 11.5C20.5 9.567 18.933 8 17 8C16.7912 8 16.5867 8.0183 16.3887 8.054C16.4616 7.7142 16.5 7.36158 16.5 7C16.5 4.23858 14.2614 2 11.5 2C8.73858 2 6.5 4.23858 6.5 7C6.5 7.36158 6.53838 7.7142 6.61205 8.0533C6.41331 8.0183 6.20879 8 6 8C4.067 8 2.5 9.567 2.5 11.5C2.5 13.2003 3.71241 14.6174 5.31986 14.934L5.50005 14.9646L5.50039 16.9776C2.69696 16.7252 0.5 14.3692 0.5 11.5C0.5 8.9656 2.21424 6.83154 4.54648 6.19411C4.94561 2.70761 7.90661 0 11.5 0Z" fill="#4880FF"/>
</svg>
