<svg width="54" height="54" viewBox="0 0 54 54" fill="none" xmlns="http://www.w3.org/2000/svg">
<path d="M22.386 2.23525C25.189 -0.153603 29.312 -0.153628 32.1152 2.23527L35.4852 5.10715C35.8855 5.44837 36.3832 5.65455 36.9077 5.6964L41.3215 6.04862C44.9927 6.34157 47.9082 9.257 48.2012 12.9283L48.5535 17.342C48.5952 17.8663 48.8012 18.3642 49.1425 18.7646L52.0145 22.1347C54.4035 24.9377 54.4035 29.0607 52.0145 31.864L49.1425 35.2337C48.8015 35.6342 48.595 36.1322 48.5532 36.6567L48.2012 41.0702C47.9082 44.7417 44.9927 47.657 41.3215 47.9497L36.9077 48.302C36.3832 48.344 35.8855 48.5502 35.4852 48.8915L32.1152 51.7632C29.312 54.1522 25.189 54.152 22.3857 51.7632L19.0158 48.8915C18.6154 48.5502 18.1176 48.344 17.5932 48.3022L13.1796 47.9497C9.50825 47.6567 6.5929 44.7415 6.29992 41.0702L5.94765 36.6567C5.9058 36.1322 5.69957 35.6345 5.3584 35.234L2.4865 31.8637C0.0976211 29.0607 0.0975961 24.938 2.48645 22.1347L5.35835 18.7647C5.69957 18.3643 5.90585 17.8663 5.94767 17.3419L6.2999 12.9282C6.59285 9.25695 9.50817 6.34162 13.1795 6.04865L17.5932 5.69642C18.1176 5.65457 18.6155 5.44837 19.0159 5.10715L22.386 2.23525ZM28.872 6.0408C27.9377 5.24455 26.5632 5.24452 25.629 6.0408L22.259 8.91272C21.0577 9.9364 19.5642 10.555 17.9909 10.6806L13.5772 11.0328C12.3535 11.1305 11.3817 12.1022 11.284 13.326L10.9318 17.7398C10.8062 19.313 10.1876 20.8065 9.16397 22.0077L6.29207 25.3777C5.4958 26.312 5.49577 27.6865 6.29207 28.6207L9.16397 31.9907C10.1876 33.192 10.8062 34.6857 10.9319 36.2587L11.2841 40.6725C11.3817 41.8962 12.3535 42.8682 13.5773 42.9657L17.9909 43.318C19.5641 43.4435 21.0577 44.0622 22.259 45.086L25.629 47.9577C26.5635 48.754 27.9377 48.754 28.872 47.9577L32.2422 45.0857C33.4432 44.0622 34.9367 43.4435 36.51 43.318L40.9237 42.9657C42.1475 42.868 43.1195 41.8962 43.217 40.6725L43.5692 36.2587C43.6947 34.6855 44.3132 33.192 45.3372 31.991L48.209 28.6207C49.0055 27.6865 49.0052 26.3122 48.209 25.3777L45.337 22.0077C44.3132 20.8065 43.6947 19.313 43.5692 17.7397L43.217 13.326C43.1195 12.1022 42.1475 11.1305 40.9237 11.0328L36.51 10.6806C34.937 10.5551 33.4432 9.93637 32.242 8.9127L28.872 6.0408ZM34.321 16.3929L37.8565 19.9285L20.1788 37.6062L16.6433 34.0705L34.321 16.3929ZM22.8305 22.58C21.366 24.0445 18.9917 24.0445 17.5272 22.58C16.0627 21.1157 16.0627 18.7413 17.5272 17.2768C18.9917 15.8123 21.366 15.8123 22.8305 17.2768C24.295 18.7413 24.295 21.1157 22.8305 22.58ZM31.6692 36.7222C33.1337 38.1867 35.508 38.1867 36.9725 36.7222C38.437 35.2577 38.437 32.8835 36.9725 31.419C35.508 29.9545 33.1337 29.9545 31.6692 31.419C30.2047 32.8835 30.2047 35.2577 31.6692 36.7222Z" fill="#19CC56"/>
</svg>
