<svg width="51" height="51" viewBox="0 0 51 51" fill="none" xmlns="http://www.w3.org/2000/svg">
<path d="M1.35708 15.1359L24.4738 1.27156C25.2655 0.796687 26.2548 0.796862 27.0463 1.27201L50.1432 15.1359C50.5197 15.3618 50.75 15.7686 50.75 16.2076V48.0001C50.75 49.3808 49.6307 50.5001 48.25 50.5001H3.25C1.8693 50.5001 0.75 49.3808 0.75 48.0001V16.2079C0.75 15.7688 0.98045 15.3618 1.35708 15.1359ZM5.75 18.3316V45.5001H45.75V18.3304L25.7593 6.33099L5.75 18.3316ZM25.8993 32.2458L39.139 21.0884L42.361 24.9118L25.935 38.7543L9.16002 24.9293L12.34 21.0708L25.8993 32.2458Z" fill="#FF4995"/>
</svg>
