<svg width="51" height="46" viewBox="0 0 51 46" fill="none" xmlns="http://www.w3.org/2000/svg">
<path d="M27.245 33L19.2473 13H14.2473L9.24732 25.5L9.24487 25.505L6.24742 33H11.6326L12.6323 30.5H20.8575L21.8575 33H27.245ZM14.63 25.5L16.7473 20.2128L18.8601 25.5H14.63ZM38.25 13H43.25V33H35.75C31.6077 33 28.25 29.6423 28.25 25.5C28.25 21.3577 31.6077 18 35.75 18H38.25V13ZM35.75 23C34.3695 23 33.25 24.1195 33.25 25.5C33.25 26.8805 34.3695 28 35.75 28H38.25V23H35.75ZM48.25 0.5H3.25C1.86937 0.5 0.75 1.61937 0.75 3V43C0.75 44.3805 1.86937 45.5 3.25 45.5H48.25C49.6305 45.5 50.75 44.3805 50.75 43V3C50.75 1.61937 49.6305 0.5 48.25 0.5ZM5.75 40.5V5.5H45.75V40.5H5.75Z" fill="#FF4995"/>
</svg>
