<svg width="54" height="54" viewBox="0 0 54 54" fill="none" xmlns="http://www.w3.org/2000/svg">
<path d="M21.886 2.23525C24.689 -0.153603 28.812 -0.153628 31.6152 2.23527L34.9852 5.10715C35.3855 5.44837 35.8832 5.65455 36.4077 5.6964L40.8215 6.04862C44.4927 6.34157 47.4082 9.257 47.7012 12.9283L48.0535 17.342C48.0952 17.8663 48.3012 18.3642 48.6425 18.7646L51.5145 22.1347C53.9035 24.9377 53.9035 29.0607 51.5145 31.864L48.6425 35.2337C48.3015 35.6342 48.095 36.1322 48.0532 36.6567L47.7012 41.0702C47.4082 44.7417 44.4927 47.657 40.8215 47.9497L36.4077 48.302C35.8832 48.344 35.3855 48.5502 34.9852 48.8915L31.6152 51.7632C28.812 54.1522 24.689 54.152 21.8857 51.7632L18.5158 48.8915C18.1154 48.5502 17.6176 48.344 17.0932 48.3022L12.6796 47.9497C9.00825 47.6567 6.0929 44.7415 5.79992 41.0702L5.44765 36.6567C5.4058 36.1322 5.19957 35.6345 4.8584 35.234L1.9865 31.8637C-0.402379 29.0607 -0.402404 24.938 1.98645 22.1347L4.85835 18.7647C5.19957 18.3643 5.40585 17.8663 5.44767 17.3419L5.7999 12.9282C6.09285 9.25695 9.00817 6.34162 12.6795 6.04865L17.0932 5.69642C17.6176 5.65457 18.1155 5.44837 18.5159 5.10715L21.886 2.23525ZM28.372 6.0408C27.4377 5.24455 26.0632 5.24452 25.129 6.0408L21.759 8.91272C20.5577 9.9364 19.0642 10.555 17.4909 10.6806L13.0772 11.0328C11.8535 11.1305 10.8817 12.1022 10.784 13.326L10.4318 17.7398C10.3062 19.313 9.68762 20.8065 8.66397 22.0077L5.79207 25.3777C4.9958 26.312 4.99577 27.6865 5.79207 28.6207L8.66397 31.9907C9.68765 33.192 10.3062 34.6857 10.4319 36.2587L10.7841 40.6725C10.8817 41.8962 11.8535 42.8682 13.0773 42.9657L17.4909 43.318C19.0641 43.4435 20.5577 44.0622 21.759 45.086L25.129 47.9577C26.0635 48.754 27.4377 48.754 28.372 47.9577L31.7422 45.0857C32.9432 44.0622 34.4367 43.4435 36.01 43.318L40.4237 42.9657C41.6475 42.868 42.6195 41.8962 42.717 40.6725L43.0692 36.2587C43.1947 34.6855 43.8132 33.192 44.8372 31.991L47.709 28.6207C48.5055 27.6865 48.5052 26.3122 47.709 25.3777L44.837 22.0077C43.8132 20.8065 43.1947 19.313 43.0692 17.7397L42.717 13.326C42.6195 12.1022 41.6475 11.1305 40.4237 11.0328L36.01 10.6806C34.437 10.5551 32.9432 9.93637 31.742 8.9127L28.372 6.0408ZM33.821 16.3929L37.3565 19.9285L19.6788 37.6062L16.1433 34.0705L33.821 16.3929ZM22.3305 22.58C20.866 24.0445 18.4917 24.0445 17.0272 22.58C15.5627 21.1157 15.5627 18.7413 17.0272 17.2768C18.4917 15.8123 20.866 15.8123 22.3305 17.2768C23.795 18.7413 23.795 21.1157 22.3305 22.58ZM31.1692 36.7222C32.6337 38.1867 35.008 38.1867 36.4725 36.7222C37.937 35.2577 37.937 32.8835 36.4725 31.419C35.008 29.9545 32.6337 29.9545 31.1692 31.419C29.7047 32.8835 29.7047 35.2577 31.1692 36.7222Z" fill="#9D3AFF"/>
</svg>
