<svg width="14" height="19" viewBox="0 0 14 19" fill="none" xmlns="http://www.w3.org/2000/svg">
<path d="M0.333984 18.3335C0.333984 14.6516 3.31875 11.6668 7.00065 11.6668C10.6826 11.6668 13.6673 14.6516 13.6673 18.3335H12.0007C12.0007 15.5721 9.76207 13.3335 7.00065 13.3335C4.23923 13.3335 2.00065 15.5721 2.00065 18.3335H0.333984ZM7.00065 10.8335C4.23815 10.8335 2.00065 8.596 2.00065 5.8335C2.00065 3.071 4.23815 0.833496 7.00065 0.833496C9.76315 0.833496 12.0007 3.071 12.0007 5.8335C12.0007 8.596 9.76315 10.8335 7.00065 10.8335ZM7.00065 9.16683C8.84232 9.16683 10.334 7.67516 10.334 5.8335C10.334 3.99183 8.84232 2.50016 7.00065 2.50016C5.15898 2.50016 3.66732 3.99183 3.66732 5.8335C3.66732 7.67516 5.15898 9.16683 7.00065 9.16683Z" fill="#4880FF"/>
</svg>
