<svg xmlns="http://www.w3.org/2000/svg" width="14" height="19" viewBox="0 0 14 19" fill="none">
<path d="M5.31155 13.9998H8.68973C8.79973 12.9985 9.31073 12.1719 10.1403 11.2687C10.2337 11.167 10.833 10.5468 10.9041 10.4583C11.6105 9.57742 12.0007 8.48734 12.0007 7.33317C12.0007 4.57175 9.76207 2.33317 7.00065 2.33317C4.23923 2.33317 2.00065 4.57175 2.00065 7.33317C2.00065 8.48675 2.39043 9.57625 3.09617 10.4568C3.16735 10.5457 3.76799 11.1675 3.86027 11.268C4.69037 12.1718 5.20151 12.9985 5.31155 13.9998ZM8.66732 15.6665H5.33398V16.4998H8.66732V15.6665ZM1.79561 11.4992C0.881026 10.3579 0.333984 8.90942 0.333984 7.33317C0.333984 3.65127 3.31875 0.666504 7.00065 0.666504C10.6826 0.666504 13.6673 3.65127 13.6673 7.33317C13.6673 8.91025 13.1197 10.3594 12.2042 11.501C11.6873 12.1455 10.334 13.1665 10.334 14.4165V16.4998C10.334 17.4203 9.58782 18.1665 8.66732 18.1665H5.33398C4.41351 18.1665 3.66732 17.4203 3.66732 16.4998V14.4165C3.66732 13.1665 2.3128 12.1445 1.79561 11.4992ZM7.83398 7.33717H9.91732L6.16732 12.3372V9.00384H4.08398L7.83398 3.99984V7.33717Z" fill="#ffffff"/>
</svg>