<svg width="36" height="31" viewBox="0 0 36 31" fill="none" xmlns="http://www.w3.org/2000/svg">
<path d="M33.6752 7.16642H35.3418V23.8331H33.6752V28.8331C33.6752 29.7536 32.929 30.4998 32.0085 30.4998H2.00846C1.088 30.4998 0.341797 29.7536 0.341797 28.8331V2.16642C0.341797 1.24594 1.088 0.499756 2.00846 0.499756H32.0085C32.929 0.499756 33.6752 1.24594 33.6752 2.16642V7.16642ZM30.3418 23.8331H20.3418C15.7395 23.8331 12.0085 20.1021 12.0085 15.4998C12.0085 10.8974 15.7395 7.16642 20.3418 7.16642H30.3418V3.83309H3.67513V27.1664H30.3418V23.8331ZM32.0085 20.4998V10.4998H20.3418C17.5803 10.4998 15.3418 12.7383 15.3418 15.4998C15.3418 18.2611 17.5803 20.4998 20.3418 20.4998H32.0085ZM20.3418 13.8331H25.3418V17.1664H20.3418V13.8331Z" fill="#EAC035"/>
</svg>
