<svg width="17" height="17" viewBox="0 0 17 17" fill="none" xmlns="http://www.w3.org/2000/svg">
<path d="M5.5 12.1667C5.5 12.1667 11.3333 13 13.8333 15.5H14.6667C15.1269 15.5 15.5 15.1269 15.5 14.6667V9.61417C16.2188 9.42917 16.75 8.77658 16.75 8C16.75 7.22342 16.2188 6.57083 15.5 6.38583V1.33333C15.5 0.8731 15.1269 0.5 14.6667 0.5H13.8333C11.3333 3 5.5 3.83333 5.5 3.83333H2.16667C1.24619 3.83333 0.5 4.57952 0.5 5.5V10.5C0.5 11.4205 1.24619 12.1667 2.16667 12.1667H3L3.83333 16.3333H5.5V12.1667ZM7.16667 5.21767C7.73608 5.0955 8.43958 4.92661 9.19942 4.70311C10.5979 4.29178 12.375 3.64385 13.8333 2.64548V13.3545C12.375 12.3562 10.5979 11.7083 9.19942 11.2969C8.43958 11.0734 7.73608 10.9045 7.16667 10.7823V5.21767ZM2.16667 5.5H5.5V10.5H2.16667V5.5Z" fill="#4880FF"/>
</svg>
