<svg width="35" height="34" viewBox="0 0 35 34" fill="none" xmlns="http://www.w3.org/2000/svg">
<path d="M17.2851 33.6966C7.98311 33.6966 0.442383 26.1558 0.442383 16.8539C0.442383 7.55196 7.98311 0.0112305 17.2851 0.0112305C26.587 0.0112305 34.1278 7.55196 34.1278 16.8539C34.1278 26.1558 26.587 33.6966 17.2851 33.6966ZM17.2851 30.3281C24.7267 30.3281 30.7592 24.2955 30.7592 16.8539C30.7592 9.41235 24.7267 3.37977 17.2851 3.37977C9.8435 3.37977 3.81092 9.41235 3.81092 16.8539C3.81092 24.2955 9.8435 30.3281 17.2851 30.3281ZM10.548 20.2225H24.0222V23.591H10.548V20.2225ZM10.548 15.1697C9.1527 15.1697 8.02159 14.0385 8.02159 12.6433C8.02159 11.248 9.1527 10.1168 10.548 10.1168C11.9433 10.1168 13.0744 11.248 13.0744 12.6433C13.0744 14.0385 11.9433 15.1697 10.548 15.1697ZM24.0222 15.1697C22.6269 15.1697 21.4957 14.0385 21.4957 12.6433C21.4957 11.248 22.6269 10.1168 24.0222 10.1168C25.4174 10.1168 26.5486 11.248 26.5486 12.6433C26.5486 14.0385 25.4174 15.1697 24.0222 15.1697Z" fill="white"/>
</svg>
