<svg width="35" height="35" viewBox="0 0 35 35" fill="none" xmlns="http://www.w3.org/2000/svg">
<path d="M17.4843 34.6458C8.18233 34.6458 0.641602 27.105 0.641602 17.8031C0.641602 8.50118 8.18233 0.960449 17.4843 0.960449C26.7862 0.960449 34.327 8.50118 34.327 17.8031C34.327 27.105 26.7862 34.6458 17.4843 34.6458ZM17.4843 31.2773C24.9259 31.2773 30.9584 25.2447 30.9584 17.8031C30.9584 10.3616 24.9259 4.32899 17.4843 4.32899C10.0427 4.32899 4.01014 10.3616 4.01014 17.8031C4.01014 25.2447 10.0427 31.2773 17.4843 31.2773ZM9.06295 26.2245C9.06295 21.5735 12.8333 17.8031 17.4843 17.8031C22.1352 17.8031 25.9056 21.5735 25.9056 26.2245H22.5371C22.5371 23.4338 20.275 21.1717 17.4843 21.1717C14.6936 21.1717 12.4315 23.4338 12.4315 26.2245H9.06295ZM10.7472 16.1189C9.35192 16.1189 8.22081 14.9877 8.22081 13.5925C8.22081 12.1972 9.35192 11.0661 10.7472 11.0661C12.1425 11.0661 13.2736 12.1972 13.2736 13.5925C13.2736 14.9877 12.1425 16.1189 10.7472 16.1189ZM24.2214 16.1189C22.8261 16.1189 21.695 14.9877 21.695 13.5925C21.695 12.1972 22.8261 11.0661 24.2214 11.0661C25.6166 11.0661 26.7478 12.1972 26.7478 13.5925C26.7478 14.9877 25.6166 16.1189 24.2214 16.1189Z" fill="white"/>
</svg>
