<svg width="35" height="34" viewBox="0 0 35 34" fill="none" xmlns="http://www.w3.org/2000/svg">
<path d="M17.3261 0.288574C26.628 0.288574 34.1688 7.8293 34.1688 17.1313C34.1688 18.3551 34.0383 19.5484 33.7903 20.698L30.7886 17.6963C30.7964 17.5089 30.8002 17.3206 30.8002 17.1313C30.8002 9.68969 24.7677 3.65711 17.3261 3.65711C9.88452 3.65711 3.85194 9.68969 3.85194 17.1313C3.85194 24.5729 9.88452 30.6054 17.3261 30.6054C19.5195 30.6054 21.5905 30.0813 23.4208 29.1516C23.6817 29.5659 23.9924 29.9568 24.3522 30.3164C24.8613 30.8256 25.4316 31.2362 26.0395 31.5483C23.4976 33.0875 20.5154 33.974 17.3261 33.974C8.02412 33.974 0.483398 26.4331 0.483398 17.1313C0.483398 7.8293 8.02412 0.288574 17.3261 0.288574ZM29.116 20.7888L31.4979 23.1707C32.8135 24.4861 32.8135 26.6191 31.4979 27.9345C30.1825 29.2501 28.0495 29.2501 26.7341 27.9345C25.4783 26.6789 25.4214 24.6785 26.5628 23.355L26.7341 23.1707L29.116 20.7888ZM17.3261 22.1841C19.7959 22.1841 22.0173 23.2472 23.5577 24.9409L21.9661 26.3882C20.6357 25.86 19.0407 25.5526 17.3261 25.5526C15.6115 25.5526 14.0165 25.86 12.686 26.3882L11.0944 24.9409C12.6349 23.2472 14.8563 22.1841 17.3261 22.1841ZM11.4311 13.7627C12.8264 13.7627 13.9576 14.8939 13.9576 16.2891C13.9576 17.6844 12.8264 18.8155 11.4311 18.8155C10.0358 18.8155 8.90474 17.6844 8.90474 16.2891C8.90474 14.8939 10.0358 13.7627 11.4311 13.7627ZM23.221 13.7627C24.6163 13.7627 25.7474 14.8939 25.7474 16.2891C25.7474 17.6844 24.6163 18.8155 23.221 18.8155C21.8258 18.8155 20.6946 17.6844 20.6946 16.2891C20.6946 14.8939 21.8258 13.7627 23.221 13.7627Z" fill="white"/>
</svg>
