<svg width="35" height="35" viewBox="0 0 35 35" fill="none" xmlns="http://www.w3.org/2000/svg">
<path d="M17.3945 34.6458C8.09248 34.6458 0.551758 27.105 0.551758 17.8031C0.551758 8.50118 8.09248 0.960449 17.3945 0.960449C26.6963 0.960449 34.2371 8.50118 34.2371 17.8031C34.2371 27.105 26.6963 34.6458 17.3945 34.6458ZM17.3945 31.2773C24.8361 31.2773 30.8686 25.2447 30.8686 17.8031C30.8686 10.3616 24.8361 4.32899 17.3945 4.32899C9.95288 4.32899 3.9203 10.3616 3.9203 17.8031C3.9203 25.2447 9.95288 31.2773 17.3945 31.2773ZM10.6574 19.4874H24.1315C24.1315 23.2081 21.1152 26.2245 17.3945 26.2245C13.6737 26.2245 10.6574 23.2081 10.6574 19.4874ZM10.6574 16.1189C9.26207 16.1189 8.13097 14.9877 8.13097 13.5925C8.13097 12.1972 9.26207 11.0661 10.6574 11.0661C12.0527 11.0661 13.1838 12.1972 13.1838 13.5925C13.1838 14.9877 12.0527 16.1189 10.6574 16.1189ZM24.1315 16.1189C22.7363 16.1189 21.6051 14.9877 21.6051 13.5925C21.6051 12.1972 22.7363 11.0661 24.1315 11.0661C25.5268 11.0661 26.6579 12.1972 26.6579 13.5925C26.6579 14.9877 25.5268 16.1189 24.1315 16.1189Z" fill="white"/>
</svg>
