<svg width="35" height="35" viewBox="0 0 35 35" fill="none" xmlns="http://www.w3.org/2000/svg">
<path d="M17.207 0.940918C26.5088 0.940918 34.0496 8.48164 34.0496 17.7836C34.0496 27.0855 26.5088 34.6263 17.207 34.6263C7.90498 34.6263 0.364258 27.0855 0.364258 17.7836C0.364258 8.48164 7.90498 0.940918 17.207 0.940918ZM17.207 4.30946C9.76538 4.30946 3.7328 10.342 3.7328 17.7836C3.7328 25.2252 9.76538 31.2578 17.207 31.2578C24.6486 31.2578 30.6811 25.2252 30.6811 17.7836C30.6811 10.342 24.6486 4.30946 17.207 4.30946ZM17.207 16.0993C20.5755 16.0993 23.3827 16.6607 25.6283 17.7836C25.6283 22.4346 21.8579 26.205 17.207 26.205C12.556 26.205 8.7856 22.4346 8.7856 17.7836C11.0313 16.6607 13.8384 16.0993 17.207 16.0993ZM11.312 9.36226C13.3494 9.36226 15.0489 10.8093 15.4386 12.7318H7.18536C7.57514 10.8093 9.27458 9.36226 11.312 9.36226ZM23.1019 9.36226C25.1394 9.36226 26.8388 10.8093 27.2285 12.7318H18.9753C19.365 10.8093 21.0644 9.36226 23.1019 9.36226Z" fill="white"/>
</svg>
